<mxfile host="app.diagrams.net" modified="2023-07-07T11:22:14.131Z" agent="Mozilla/5.0 (Windows NT 10.0; Win64; x64) AppleWebKit/537.36 (KHTML, like Gecko) Chrome/114.0.0.0 Safari/537.36" version="21.6.1" etag="NEdjO44iS6BgXBY3VXgu" type="github">
  <diagram name="第 1 页" id="aAxsxmUyYPRG1Wrr9kTX">
    <mxGraphModel>
      <root>
        <mxCell id="0" />
        <mxCell id="1" parent="0" />
      </root>
    </mxGraphModel>
  </diagram>
</mxfile>
